<svg width="626" height="305" viewBox="0 0 626 305" fill="none" xmlns="http://www.w3.org/2000/svg">
<g clip-path="url(#clip0_6989_220)">
<path d="M148.97 266.7C131.095 266.7 113.965 264.353 97.5798 259.659C81.1946 254.752 68.0013 248.458 58 240.778L75.5555 201.734C85.1313 208.562 96.4094 214.215 109.39 218.696C122.583 222.963 135.883 225.096 149.289 225.096C159.503 225.096 167.695 224.136 173.867 222.216C180.25 220.083 184.932 217.203 187.911 213.575C190.89 209.948 192.38 205.788 192.38 201.094C192.38 195.121 190.039 190.427 185.357 187.013C180.676 183.386 174.505 180.506 166.844 178.372C159.184 176.025 150.672 173.892 141.309 171.972C132.159 169.838 122.902 167.278 113.539 164.291C104.389 161.304 95.9837 157.464 88.3233 152.77C80.6626 148.076 74.3852 141.889 69.4909 134.209C64.8094 126.528 62.4687 116.714 62.4687 104.766C62.4687 91.9649 65.8734 80.3373 72.6828 69.8829C79.705 59.2155 90.1319 50.788 103.964 44.6008C118.008 38.2003 135.563 35 156.63 35C170.675 35 184.506 36.7068 198.125 40.1204C211.744 43.3207 223.767 48.2278 234.194 54.8417L218.234 94.205C207.807 88.2312 197.38 83.8575 186.953 81.0839C176.526 78.0971 166.312 76.6036 156.311 76.6036C146.31 76.6036 138.117 77.777 131.733 80.1238C125.349 82.4708 120.774 85.5643 118.008 89.4046C115.242 93.0316 113.858 97.2987 113.858 102.206C113.858 107.966 116.199 112.66 120.881 116.287C125.562 119.701 131.733 122.474 139.394 124.608C147.055 126.741 155.46 128.875 164.61 131.008C173.973 133.142 183.229 135.595 192.38 138.369C201.743 141.142 210.254 144.876 217.915 149.57C225.576 154.264 231.747 160.451 236.428 168.132C241.322 175.812 243.769 185.52 243.769 197.254C243.769 209.842 240.258 221.363 233.236 231.817C226.214 242.271 215.681 250.699 201.636 257.099C187.804 263.5 170.249 266.7 148.97 266.7Z" fill="#304064"/>
<path d="M386.032 266.7C368.796 266.7 352.729 263.926 337.835 258.379C323.151 252.619 310.385 244.511 299.531 234.057C288.679 223.603 280.167 211.335 273.996 197.254C268.038 183.173 265.059 167.705 265.059 150.85C265.059 133.995 268.038 118.527 273.996 104.446C280.167 90.3647 288.679 78.0971 299.531 67.6427C310.597 57.1886 323.47 49.1879 338.154 43.6407C352.837 37.8802 368.902 35 386.351 35C405.717 35 423.165 38.4136 438.699 45.2409C454.445 51.8548 467.639 61.6689 478.278 74.6834L445.084 105.406C437.422 96.6587 428.91 90.1515 419.548 85.8844C410.184 81.4041 399.97 79.1639 388.906 79.1639C378.479 79.1639 368.902 80.8707 360.178 84.2842C351.454 87.6978 343.898 92.6049 337.516 99.0055C331.132 105.406 326.131 112.98 322.514 121.727C319.109 130.475 317.407 140.182 317.407 150.85C317.407 161.518 319.109 171.225 322.514 179.973C326.131 188.72 331.132 196.294 337.516 202.695C343.898 209.095 351.454 214.002 360.178 217.416C368.902 220.829 378.479 222.536 388.906 222.536C399.97 222.536 410.184 220.403 419.548 216.136C428.91 211.655 437.422 204.935 445.084 195.974L478.278 226.697C467.639 239.711 454.445 249.632 438.699 256.459C423.165 263.286 405.608 266.7 386.032 266.7Z" fill="#304064"/>
<path d="M568 35H502V267H568V35Z" fill="#077FC4"/>
</g>
<defs>
<clipPath id="clip0_6989_220">
<rect width="626" height="305" fill="white"/>
</clipPath>
</defs>
</svg>
